#N canvas 47 209 1186 546 12;
#X text 112 94 Gas;
#X msg 86 190 1;
#X obj 86 162 loadbang;
#X obj 66 241 send 1-volume_rcv;
#X obj 205 243 send 1-on_off_rcv;
#X msg 157 188 0;
#X obj 351 246 s 1-grain_density_rcv;
#X obj 60 69 ys.granular_main 1 river.wav;
#X msg 347 209 0.3;
#X text 369 86 Gas;
#X obj 317 61 ys.granular_main 2 wire.wav;
#X text 568 72 Gas;
#X msg 84 325 1;
#X obj 84 297 loadbang;
#X msg 155 323 0;
#X msg 345 344 0.3;
#X msg 81 438 1;
#X obj 81 410 loadbang;
#X msg 152 436 0;
#X msg 342 457 0.3;
#X obj 64 376 send 2-volume_rcv;
#X obj 203 378 send 2-on_off_rcv;
#X obj 349 381 s 2-grain_density_rcv;
#X obj 61 489 send 3-volume_rcv;
#X obj 200 491 send 3-on_off_rcv;
#X obj 346 494 s 3-grain_density_rcv;
#X obj 516 47 ys.granular_main 3 poetry.wav;
#X connect 1 0 3 0;
#X connect 1 0 4 0;
#X connect 2 0 1 0;
#X connect 2 0 8 0;
#X connect 5 0 4 0;
#X connect 8 0 6 0;
#X connect 12 0 20 0;
#X connect 12 0 21 0;
#X connect 13 0 12 0;
#X connect 13 0 15 0;
#X connect 14 0 21 0;
#X connect 15 0 22 0;
#X connect 16 0 23 0;
#X connect 16 0 24 0;
#X connect 17 0 16 0;
#X connect 17 0 19 0;
#X connect 18 0 24 0;
#X connect 19 0 25 0;
